#!OML:ASF H:\IndianDance\Patient Classification 1\Patient 1\Session 1\dancer.ASF
:FULLY-SPECIFIED
:DEGREES
4359
root 4.1354 14.1486 3.74323 -178.112 24.2974 176.387
lowerback 12.7791 0.757811 2.35512
upperback -6.65377 1.44553 -1.34134
thorax -14.5575 0.410623 -3.2106
lowerneck -5.2364 -14.9444 -10.2066
upperneck -1.51488 -19.5326 14.512
head 2.83864 -9.39196 4.77942
rclavicle -4.71865e-014 5.1684e-015
rhumerus 37.7378 -14.2735 -25.9946
rradius 63.3292
rwrist -59.4891
rhand -26.3332 -16.2427
rfingers 7.12502
rthumb 0.223916 -46.2223
lclavicle -4.71865e-014 5.1684e-015
lhumerus -9.78052 -13.2632 -7.10699
lradius 33.1467
lwrist 3.75995
lhand 2.62986 13.105
lfingers 7.12502
lthumb 28.1068 41.0189
rfemur -56.49 -21.1896 13.6414
rtibia 73.5233
rfoot -8.89086 -3.23167
rtoes 11.6229
lfemur -21.5255 26.1867 -27.3075
ltibia 56.2581
lfoot -34.0626 17.3548
ltoes 2.71053
4360
root 4.16009 14.1688 3.74993 -178.13 24.471 176.087
lowerback 13.1302 0.71941 2.71425
upperback -6.90018 1.44149 -1.7147
thorax -15.0619 0.337159 -3.85788
lowerneck -5.14509 -14.876 -10.0571
upperneck -2.64925 -19.311 14.0098
head 2.38997 -9.31607 4.69707
rclavicle 3.07122e-014 1.63003e-014
rhumerus 39.8273 -16.3483 -25.6865
rradius 64.9968
rwrist -58.377
rhand -27.6616 -13.2249
rfingers 7.12502
rthumb -1.05903 -43.202
lclavicle 3.07122e-014 1.63003e-014
lhumerus -9.51052 -12.7971 -7.85366
lradius 32.9369
lwrist 3.61764
lhand 2.73051 13.248
lfingers 7.12502
lthumb 28.203 41.146
rfemur -56.9424 -20.9906 13.1101
rtibia 72.209
rfoot -9.19604 -4.80254
rtoes 12.327
lfemur -21.4239 26.0846 -27.5877
ltibia 55.786
lfoot -33.8211 17.5047
ltoes 2.80013
4361
root 4.18743 14.193 3.75273 -178.059 24.6092 175.884
lowerback 13.3862 0.672546 3.15453
upperback -7.15616 1.4492 -2.05476
thorax -15.522 0.260265 -4.51999
lowerneck -5.05167 -14.799 -9.93695
upperneck -3.76022 -19.0848 13.5571
head 1.95823 -9.22707 4.63321
rclavicle 1.19022e-014 2.60408e-014
rhumerus 41.8562 -18.3559 -25.4339
rradius 66.6882
rwrist -57.2206
rhand -29.1006 -9.92234
rfingers 7.12502
rthumb -2.44886 -39.888
lclavicle 1.19022e-014 2.60408e-014
lhumerus -9.24895 -12.3674 -8.54379
lradius 32.7475
lwrist 3.52174
lhand 2.80305 13.3574
lfingers 7.12502
lthumb 28.2723 41.244
rfemur -57.2152 -20.7109 12.6359
rtibia 70.4693
rfoot -9.5938 -6.36442
rtoes 12.7786
lfemur -21.3366 25.9338 -27.7801
ltibia 55.2741
lfoot -33.5761 17.6316
ltoes 2.9353
4362
root 4.21744 14.2207 3.7521 -177.899 24.7239 175.776
lowerback 13.55 0.621768 3.66616
upperback -7.43207 1.47378 -2.365
thorax -15.9512 0.18248 -5.19662
lowerneck -4.95734 -14.712 -9.83385
upperneck -4.80415 -18.8563 13.1345
head 1.55301 -9.1274 4.57797
rclavicle -3.12216e-014 -1.03368e-014
rhumerus 43.7616 -20.2689 -25.2125
rradius 68.4418
rwrist -56.0375
rhand -30.5921 -6.33548
rfingers 7.12502
rthumb -3.88922 -36.2797
lclavicle -3.12216e-014 -1.03368e-014
lhumerus -8.98673 -11.9931 -9.18483
lradius 32.5737
lwrist 3.50008
lhand 2.85504 13.4454
lfingers 7.12502
lthumb 28.322 41.3237
rfemur -57.3081 -20.345 12.2212
rtibia 68.3242
rfoot -10.0573 -7.86154
rtoes 12.8732
lfemur -21.2704 25.7474 -27.8839
ltibia 54.7318
lfoot -33.3373 17.7221
ltoes 3.15871
4363
root 4.25018 14.2512 3.74844 -177.666 24.8281 175.744
lowerback 13.6334 0.570868 4.21663
upperback -7.73417 1.5146 -2.64615
thorax -16.3645 0.106201 -5.87028
lowerneck -4.86547 -14.6151 -9.75403
upperneck -5.73591 -18.63 12.7297
head 1.18744 -9.02091 4.52539
rclavicle 6.87174e-014 -1.54058e-015
rhumerus 45.5021 -22.0672 -24.9871
rradius 70.2855
rwrist -54.8425
rhand -32.0997 -2.55799
rfingers 7.12502
rthumb -5.34498 -32.4706
lclavicle 6.87174e-014 -1.54058e-015
lhumerus -8.72845 -11.6896 -9.77601
lradius 32.409
lwrist 3.57158
lhand 2.88515 13.5187
lfingers 7.12502
lthumb 28.3508 41.3923
rfemur -57.2222 -19.8884 11.8439
rtibia 65.81
rfoot -10.5684 -9.25902
rtoes 12.684
lfemur -21.2195 25.5418 -27.9154
ltibia 54.162
lfoot -33.0973 17.7942
ltoes 3.41376
4364
root 4.28599 14.2838 3.74212 -177.386 24.9358 175.75
lowerback 13.6542 0.540744 4.76608
upperback -8.055 1.58999 -2.91262
thorax -16.7608 0.0431367 -6.53974
lowerneck -4.83743 -14.5334 -9.68562
upperneck -6.49868 -18.4397 12.3192
head 0.887155 -8.92406 4.45715
rclavicle 3.23615e-014 1.40516e-014
rhumerus 46.9874 -23.7866 -24.6828
rradius 72.2503
rwrist -53.6474
rhand -33.5407 1.36227
rfingers 7.12502
rthumb -6.7362 -28.5106
lclavicle 3.23615e-014 1.40516e-014
lhumerus -8.43271 -11.4445 -10.3076
lradius 32.2533
lwrist 3.74529
lhand 2.88986 13.589
lfingers 7.12502
lthumb 28.3553 41.4618
rfemur -56.9595 -19.3323 11.4614
rtibia 62.9709
rfoot -11.1088 -10.5292
rtoes 12.2664
lfemur -21.1704 25.3397 -27.9027
ltibia 53.5639
lfoot -32.8602 17.8408
ltoes 3.71326
4365
root 4.32511 14.3179 3.73333 -177.083 25.0564 175.767
lowerback 13.631 0.528037 5.28437
upperback -8.39873 1.68933 -3.16985
thorax -17.1577 -0.00914947 -7.19234
lowerneck -4.87949 -14.461 -9.62283
upperneck -7.06071 -18.2799 11.8916
head 0.659703 -8.83663 4.36793
rclavicle 2.09221e-014 2.22142e-014
rhumerus 48.1873 -25.4173 -24.27
rradius 74.3414
rwrist -52.4237
rhand -34.862 5.3169
rfingers 7.12502
rthumb -8.01157 -24.5113
lclavicle 2.09221e-014 2.22142e-014
lhumerus -8.11472 -11.2531 -10.7886
lradius 32.0981
lwrist 3.99777
lhand 2.87472 13.6457
lfingers 7.12502
lthumb 28.3408 41.5209
rfemur -56.527 -18.6718 11.043
rtibia 59.8562
rfoot -11.6503 -11.6743
rtoes 11.677
lfemur -21.1081 25.1562 -27.8657
ltibia 52.936
lfoot -32.6159 17.8771
ltoes 4.002
4366
root 4.36794 14.353 3.72209 -176.778 25.1977 175.777
lowerback 13.5757 0.544941 5.74738
upperback -8.76047 1.82399 -3.42038
thorax -17.554 -0.0424869 -7.82038
lowerneck -5.02221 -14.405 -9.55132
upperneck -7.40116 -18.1588 11.4229
head 0.51259 -8.76425 4.24558
rclavicle 1.45113e-014 -4.77083e-015
rhumerus 49.0556 -26.969 -23.6976
rradius 76.5491
rwrist -51.128
rhand -36.048 9.17672
rfingers 7.12502
rthumb -9.15616 -20.6045
lclavicle 1.45113e-014 -4.77083e-015
lhumerus -7.76297 -11.0806 -11.1981
lradius 31.9652
lwrist 4.28475
lhand 2.85131 13.7054
lfingers 7.12502
lthumb 28.3185 41.5843
rfemur -55.9299 -17.8963 10.5591
rtibia 56.5186
rfoot -12.1729 -12.704
rtoes 10.958
lfemur -21.0189 25 -27.8169
ltibia 52.2795
lfoot -32.361 17.9131
ltoes 4.24159
4367
root 4.41488 14.3883 3.70833 -176.481 25.3617 175.78
lowerback 13.4978 0.588356 6.15072
upperback -9.12927 1.9876 -3.66618
thorax -17.9417 -0.0585127 -8.42133
lowerneck -5.15136 -14.3609 -9.52766
upperneck -7.53123 -18.0999 10.6466
head 0.437594 -8.72074 4.4572
rclavicle 7.00716e-015 8.34896e-015
rhumerus 49.5674 -28.4592 -22.9344
rradius 78.8536
rwrist -49.7348
rhand -37.1067 12.8479
rfingers 7.12502
rthumb -10.1776 -16.8859
lclavicle 7.00716e-015 8.34896e-015
lhumerus -7.38448 -10.9004 -11.5419
lradius 31.8437
lwrist 4.57872
lhand 2.82048 13.7608
lfingers 7.12502
lthumb 28.289 41.6446
rfemur -55.1726 -16.9952 10.0022
rtibia 53.0143
rfoot -12.672 -13.6521
rtoes 10.189
lfemur -20.8919 24.8883 -27.7483
ltibia 51.6019
lfoot -32.0873 17.9619
ltoes 4.37856
4368
root 4.46649 14.4232 3.69189 -176.197 25.5441 175.779
lowerback 13.3882 0.654204 6.48427
upperback -9.49891 2.17189 -3.90029
thorax -18.3074 -0.0573043 -8.97685
lowerneck -5.49042 -14.3357 -9.4559
upperneck -7.51212 -18.0361 10.1749
head 0.434262 -8.67335 4.26756
rclavicle -2.28602e-015 -1.19271e-014
rhumerus 49.7461 -29.8593 -21.9932
rradius 81.2033
rwrist -48.194
rhand -38.0978 16.181
rfingers 7.12502
rthumb -11.1336 -13.5036
lclavicle -2.28602e-015 -1.19271e-014
lhumerus -7.00403 -10.7009 -11.819
lradius 31.7419
lwrist 4.85615
lhand 2.78609 13.8104
lfingers 7.12502
lthumb 28.2561 41.6996
rfemur -54.2637 -15.9584 9.36962
rtibia 49.4052
rfoot -13.1235 -14.5774
rtoes 9.35742
lfemur -20.7237 24.8199 -27.6517
ltibia 50.9157
lfoot -31.8041 18.0116
ltoes 4.42907
